<mxfile host="app.diagrams.net" agent="Mozilla/5.0 (Windows NT 10.0; Win64; x64) AppleWebKit/537.36 (KHTML, like Gecko) Chrome/127.0.0.0 Safari/537.36" version="24.7.7">
  <diagram name="Page-1" id="3B_lKVKuVHu5bV7axG-k">
    <mxGraphModel dx="1259" dy="693" grid="0" gridSize="10" guides="1" tooltips="1" connect="1" arrows="1" fold="1" page="0" pageScale="1" pageWidth="850" pageHeight="1100" math="0" shadow="0">
      <root>
        <mxCell id="0" />
        <mxCell id="1" parent="0" />
        <mxCell id="a8XecjHCPafej1urDVD1-4" value="Hybrid Connection" style="whiteSpace=wrap;strokeWidth=2;verticalAlign=top;" parent="1" vertex="1">
          <mxGeometry x="910" y="331" width="138" height="29" as="geometry" />
        </mxCell>
        <mxCell id="a8XecjHCPafej1urDVD1-7" value="Cloud Network" style="whiteSpace=wrap;strokeWidth=2;verticalAlign=top;" parent="1" vertex="1">
          <mxGeometry x="1022.25" y="611" width="91.75" height="28" as="geometry" />
        </mxCell>
        <mxCell id="a8XecjHCPafej1urDVD1-12" value="On-Premises Network" style="whiteSpace=wrap;strokeWidth=2;verticalAlign=top;" parent="1" vertex="1">
          <mxGeometry x="425" y="242" width="155" height="27" as="geometry" />
        </mxCell>
        <mxCell id="a8XecjHCPafej1urDVD1-18" value="" style="curved=1;startArrow=none;endArrow=block;exitX=0;exitY=0.89;entryX=0.5;entryY=0;rounded=0;fontSize=12;startSize=8;endSize=8;" parent="1" edge="1">
          <mxGeometry relative="1" as="geometry">
            <Array as="points">
              <mxPoint x="365" y="355" />
            </Array>
            <mxPoint x="461" y="317.26" as="sourcePoint" />
            <mxPoint x="365.5" y="414" as="targetPoint" />
          </mxGeometry>
        </mxCell>
        <mxCell id="a8XecjHCPafej1urDVD1-19" value="" style="curved=1;startArrow=none;endArrow=block;exitX=0.5;exitY=1;entryX=0.51;entryY=0;rounded=0;fontSize=12;startSize=8;endSize=8;" parent="1" edge="1">
          <mxGeometry relative="1" as="geometry">
            <Array as="points" />
            <mxPoint x="365.5" y="448" as="sourcePoint" />
            <mxPoint x="365.6199999999999" y="567" as="targetPoint" />
          </mxGeometry>
        </mxCell>
        <mxCell id="a8XecjHCPafej1urDVD1-20" value="" style="curved=1;startArrow=none;endArrow=block;exitX=0;exitY=0.85;entryX=0.5;entryY=0;rounded=0;fontSize=12;startSize=8;endSize=8;" parent="1" edge="1">
          <mxGeometry relative="1" as="geometry">
            <Array as="points">
              <mxPoint x="256" y="626" />
            </Array>
            <mxPoint x="334" y="595.9000000000001" as="sourcePoint" />
            <mxPoint x="256" y="651" as="targetPoint" />
          </mxGeometry>
        </mxCell>
        <mxCell id="a8XecjHCPafej1urDVD1-21" value="" style="curved=1;startArrow=none;endArrow=block;exitX=1.01;exitY=0.78;entryX=0.5;entryY=0;rounded=0;fontSize=12;startSize=8;endSize=8;" parent="1" edge="1">
          <mxGeometry relative="1" as="geometry">
            <Array as="points">
              <mxPoint x="501" y="626" />
            </Array>
            <mxPoint x="396" y="593.3333333333333" as="sourcePoint" />
            <mxPoint x="501" y="651" as="targetPoint" />
          </mxGeometry>
        </mxCell>
        <mxCell id="a8XecjHCPafej1urDVD1-25" value="Internet" style="curved=1;startArrow=none;endArrow=block;exitX=0.5;exitY=1;entryX=0;entryY=0.34;rounded=0;fontSize=12;startSize=8;endSize=8;" parent="1" edge="1">
          <mxGeometry relative="1" as="geometry">
            <Array as="points">
              <mxPoint x="488" y="389" />
            </Array>
            <mxPoint x="492.5" y="321" as="sourcePoint" />
            <mxPoint x="859" y="425.55999999999995" as="targetPoint" />
          </mxGeometry>
        </mxCell>
        <mxCell id="a8XecjHCPafej1urDVD1-26" value="Private Connection" style="curved=1;startArrow=none;endArrow=block;exitX=1;exitY=0.91;entryX=0;entryY=0.34;rounded=0;fontSize=12;startSize=8;endSize=8;" parent="1" edge="1">
          <mxGeometry relative="1" as="geometry">
            <Array as="points">
              <mxPoint x="605" y="355" />
              <mxPoint x="605" y="389" />
            </Array>
            <mxPoint x="524" y="317.94000000000005" as="sourcePoint" />
            <mxPoint x="1022" y="425.55999999999995" as="targetPoint" />
          </mxGeometry>
        </mxCell>
        <mxCell id="a8XecjHCPafej1urDVD1-27" value="Encrypted Tunnel" style="curved=1;startArrow=none;endArrow=block;exitX=0.5;exitY=1;entryX=0.35;entryY=0;rounded=0;fontSize=12;startSize=8;endSize=8;" parent="1" edge="1">
          <mxGeometry relative="1" as="geometry">
            <Array as="points">
              <mxPoint x="915" y="542" />
            </Array>
            <mxPoint x="915.5" y="448" as="sourcePoint" />
            <mxPoint x="960.0500000000002" y="567" as="targetPoint" />
          </mxGeometry>
        </mxCell>
        <mxCell id="a8XecjHCPafej1urDVD1-28" value="Dedicated Link" style="curved=1;startArrow=none;endArrow=block;exitX=0.5;exitY=1;entryX=0.69;entryY=0;rounded=0;fontSize=12;startSize=8;endSize=8;" parent="1" edge="1">
          <mxGeometry relative="1" as="geometry">
            <Array as="points">
              <mxPoint x="1083" y="542" />
            </Array>
            <mxPoint x="1083.5" y="448" as="sourcePoint" />
            <mxPoint x="1029.0700000000002" y="567" as="targetPoint" />
          </mxGeometry>
        </mxCell>
        <mxCell id="9V1G87emkbyzrFsy7gOw-1" value="&lt;span style=&quot;text-wrap: wrap;&quot;&gt;Router&lt;/span&gt;" style="image;html=1;image=img/lib/clip_art/networking/Router_128x128.png" vertex="1" parent="1">
          <mxGeometry x="459" y="264" width="80" height="80" as="geometry" />
        </mxCell>
        <mxCell id="9V1G87emkbyzrFsy7gOw-2" value="&lt;span style=&quot;text-wrap: wrap;&quot;&gt;Firewall&lt;/span&gt;" style="image;html=1;image=img/lib/clip_art/networking/Firewall_02_128x128.png" vertex="1" parent="1">
          <mxGeometry x="321" y="409" width="80" height="80" as="geometry" />
        </mxCell>
        <mxCell id="9V1G87emkbyzrFsy7gOw-3" value="&lt;span style=&quot;text-wrap: wrap;&quot;&gt;Switch&lt;/span&gt;" style="image;html=1;image=img/lib/clip_art/networking/Switch_128x128.png" vertex="1" parent="1">
          <mxGeometry x="325" y="544" width="80" height="80" as="geometry" />
        </mxCell>
        <mxCell id="9V1G87emkbyzrFsy7gOw-4" value="&lt;span style=&quot;text-wrap: wrap;&quot;&gt;Server: Application Server&lt;/span&gt;" style="sketch=0;aspect=fixed;pointerEvents=1;shadow=0;dashed=0;html=1;strokeColor=none;labelPosition=center;verticalLabelPosition=bottom;verticalAlign=top;align=center;fillColor=#00188D;shape=mxgraph.mscae.enterprise.application_server" vertex="1" parent="1">
          <mxGeometry x="236" y="653" width="43" height="50" as="geometry" />
        </mxCell>
        <mxCell id="9V1G87emkbyzrFsy7gOw-5" value="&lt;span style=&quot;text-wrap: wrap;&quot;&gt;Server: Database Server&lt;/span&gt;" style="image;aspect=fixed;perimeter=ellipsePerimeter;html=1;align=center;shadow=0;dashed=0;spacingTop=3;image=img/lib/active_directory/database_server.svg;" vertex="1" parent="1">
          <mxGeometry x="488" y="650" width="41" height="50" as="geometry" />
        </mxCell>
        <mxCell id="9V1G87emkbyzrFsy7gOw-6" value="&lt;span style=&quot;text-wrap: wrap;&quot;&gt;VPN Gateway&lt;/span&gt;" style="outlineConnect=0;dashed=0;verticalLabelPosition=bottom;verticalAlign=top;align=center;html=1;shape=mxgraph.aws3.vpn_gateway;fillColor=#F58534;gradientColor=none;" vertex="1" parent="1">
          <mxGeometry x="864" y="376.5" width="69" height="72" as="geometry" />
        </mxCell>
        <mxCell id="9V1G87emkbyzrFsy7gOw-7" value="&lt;span style=&quot;text-wrap: wrap;&quot;&gt;Direct Connect&lt;/span&gt;" style="outlineConnect=0;dashed=0;verticalLabelPosition=bottom;verticalAlign=top;align=center;html=1;shape=mxgraph.aws3.direct_connect;fillColor=#F58536;gradientColor=none;" vertex="1" parent="1">
          <mxGeometry x="1029" y="372" width="67.5" height="81" as="geometry" />
        </mxCell>
        <mxCell id="9V1G87emkbyzrFsy7gOw-12" value="" style="edgeStyle=orthogonalEdgeStyle;rounded=0;orthogonalLoop=1;jettySize=auto;html=1;" edge="1" parent="1" source="9V1G87emkbyzrFsy7gOw-8" target="9V1G87emkbyzrFsy7gOw-10">
          <mxGeometry relative="1" as="geometry" />
        </mxCell>
        <mxCell id="9V1G87emkbyzrFsy7gOw-14" style="edgeStyle=orthogonalEdgeStyle;rounded=0;orthogonalLoop=1;jettySize=auto;html=1;curved=1;" edge="1" parent="1" source="9V1G87emkbyzrFsy7gOw-8" target="9V1G87emkbyzrFsy7gOw-11">
          <mxGeometry relative="1" as="geometry" />
        </mxCell>
        <mxCell id="9V1G87emkbyzrFsy7gOw-15" style="edgeStyle=orthogonalEdgeStyle;rounded=0;orthogonalLoop=1;jettySize=auto;html=1;entryX=0.25;entryY=0;entryDx=0;entryDy=0;curved=1;" edge="1" parent="1" source="9V1G87emkbyzrFsy7gOw-8" target="9V1G87emkbyzrFsy7gOw-9">
          <mxGeometry relative="1" as="geometry" />
        </mxCell>
        <mxCell id="9V1G87emkbyzrFsy7gOw-8" value="&lt;span style=&quot;text-wrap: wrap;&quot;&gt;VPC: Virtual Private Cloud&lt;/span&gt;" style="outlineConnect=0;dashed=0;verticalLabelPosition=bottom;verticalAlign=top;align=center;html=1;shape=mxgraph.aws3.virtual_private_cloud;fillColor=#F58534;gradientColor=none;" vertex="1" parent="1">
          <mxGeometry x="955.5" y="552" width="79.5" height="54" as="geometry" />
        </mxCell>
        <mxCell id="9V1G87emkbyzrFsy7gOw-9" value="&lt;span style=&quot;text-wrap: wrap;&quot;&gt;EC2: Web Server&lt;/span&gt;" style="image;aspect=fixed;perimeter=ellipsePerimeter;html=1;align=center;shadow=0;dashed=0;spacingTop=3;image=img/lib/active_directory/web_server.svg;" vertex="1" parent="1">
          <mxGeometry x="797" y="734" width="40" height="50" as="geometry" />
        </mxCell>
        <mxCell id="9V1G87emkbyzrFsy7gOw-10" value="&lt;span style=&quot;text-wrap: wrap;&quot;&gt;RDS: Database&lt;/span&gt;" style="outlineConnect=0;dashed=0;verticalLabelPosition=bottom;verticalAlign=top;align=center;html=1;shape=mxgraph.aws3.rds;fillColor=#2E73B8;gradientColor=none;" vertex="1" parent="1">
          <mxGeometry x="968.25" y="724" width="54" height="60" as="geometry" />
        </mxCell>
        <mxCell id="9V1G87emkbyzrFsy7gOw-11" value="&lt;span style=&quot;text-wrap: wrap;&quot;&gt;S3: Storage Bucket&lt;/span&gt;" style="image;points=[];aspect=fixed;html=1;align=center;shadow=0;dashed=0;image=img/lib/allied_telesis/storage/Datacenter_Server_Storage_Unit_Large.svg;" vertex="1" parent="1">
          <mxGeometry x="1155" y="734" width="76.8" height="79.2" as="geometry" />
        </mxCell>
      </root>
    </mxGraphModel>
  </diagram>
</mxfile>
